<svg xmlns="http://www.w3.org/2000/svg" width="195" height="71" viewBox="0 0 195 71"><g><g><g><path fill="#373535" d="M1.23 47.308v-33.11h4.725v33.11zm2.357-37.05c-2.099 0-3.154-1.054-3.154-3.154 0-2.109 1.055-3.153 3.154-3.153 2.11 0 3.154 1.044 3.154 3.153 0 2.1-1.044 3.154-3.154 3.154zm11.83 26.017c0 4.198 2.099 6.297 6.307 6.297h11.034c4.208 0 6.307-2.099 6.307-6.297V18.923H21.724c-4.208 0-6.307 2.11-6.307 6.308zm6.307 11.033c-7.362 0-11.033-3.681-11.033-11.033V25.231c0-7.352 3.671-11.033 11.033-11.033h17.341V0h4.736v36.275c0 7.352-3.681 11.033-11.043 11.033zm37.061-28.385c-4.209 0-6.308 2.11-6.308 6.308v6.782l22.357-5.135c.861-.301 1.292-.85 1.292-1.647 0-4.198-2.099-6.308-6.308-6.308zm11.033 23.649c4.209 0 6.308-2.099 6.308-6.297h4.725c0 7.352-3.67 11.033-11.033 11.033H58.785c-7.363 0-11.044-3.681-11.044-11.033V25.231c0-7.352 3.681-11.033 11.044-11.033h11.033c7.363 0 11.033 3.154 11.033 9.462 0 4.574-1.593 7.212-4.79 7.879l-23.552 5.36c.184 3.789 2.282 5.673 6.276 5.673zm36.264 0c4.209 0 6.308-2.099 6.308-6.297v-6.781l-22.357 5.134c-.861.302-1.292.84-1.292 1.647 0 4.198 2.099 6.297 6.308 6.297zM95.049 18.923c-4.209 0-6.308 2.11-6.308 6.308h-4.725c0-7.352 3.67-11.033 11.033-11.033h11.033c7.362 0 11.044 3.681 11.044 11.033v11.044c0 7.352-3.682 11.033-11.044 11.033H95.049c-7.363 0-11.033-3.154-11.033-9.461 0-4.586 1.593-7.212 4.79-7.88l23.551-5.36c-.183-3.789-2.282-5.684-6.275-5.684zm59.923 17.352c0 7.352-3.681 11.033-11.044 11.033h-11.033c-7.362 0-11.033-3.681-11.033-11.033V0h4.725v14.198h17.341c7.363 0 11.044 3.681 11.044 11.033zm-11.044 6.297c4.209 0 6.308-2.099 6.308-6.297V25.231c0-4.198-2.099-6.308-6.308-6.308h-17.341v17.352c0 4.198 2.099 6.297 6.308 6.297zm15.78-28.374h4.726v22.077c0 4.198 2.099 6.297 6.307 6.297h11.033c4.209 0 6.308-2.099 6.308-6.297V14.198h4.736v22.077c0 7.352-3.681 11.033-11.044 11.033h-11.033c-7.362 0-11.033-3.681-11.033-11.033z"/></g><g><path fill="#373535" d="M2.731 70.091v-7.313H0v-.972h6.561v.972H3.83v7.313zm5.009 0v-8.285h1.099v3.414h4.282v-3.414h1.099v8.285h-1.099v-3.9H8.839v3.9zm8.333 0v-8.285h5.983v.972h-4.883v2.546h4.571v.972h-4.571v2.824h5.08v.971zm10.888 0v-8.285h1.643l1.96 5.865c.181.546.312.954.395 1.226.095-.3.243-.744.444-1.329l1.994-5.762h1.468v8.285h-1.053V63.16l-2.419 6.931h-.987l-2.392-7.059v7.059zm9.327-4.032c0-1.374.37-2.45 1.109-3.227.739-.777 1.692-1.165 2.86-1.165.766 0 1.454.183 2.07.547a3.579 3.579 0 0 1 1.404 1.528c.322.652.484 1.393.484 2.22 0 .839-.17 1.591-.509 2.253a3.471 3.471 0 0 1-1.441 1.504 4.115 4.115 0 0 1-2.013.511c-.782 0-1.478-.189-2.093-.565a3.64 3.64 0 0 1-1.397-1.541 4.662 4.662 0 0 1-.474-2.065zm1.134.019c0 .997.268 1.782.805 2.355.536.572 1.209.86 2.019.86.825 0 1.502-.289 2.036-.868.533-.579.799-1.4.799-2.465 0-.673-.114-1.261-.341-1.763a2.622 2.622 0 0 0-1-1.166 2.717 2.717 0 0 0-1.477-.415c-.775 0-1.443.266-2.002.799-.559.531-.839 1.418-.839 2.663zm7.844 1.352l1.03-.093c.048.417.162.758.341 1.026.18.266.457.483.834.648.376.164.8.247 1.271.247.418 0 .787-.062 1.107-.187.32-.125.557-.297.713-.515.157-.218.236-.455.236-.71 0-.258-.076-.484-.226-.679-.15-.192-.399-.355-.746-.487-.222-.085-.714-.221-1.476-.404-.762-.183-1.294-.355-1.599-.517-.395-.208-.688-.466-.881-.773a1.883 1.883 0 0 1-.292-1.031c0-.421.12-.813.357-1.175.238-.365.583-.641 1.04-.83a3.946 3.946 0 0 1 1.52-.283c.613 0 1.155.098 1.624.297.468.197.829.488 1.082.873.252.384.387.82.406 1.306l-1.053.081c-.055-.522-.246-.918-.572-1.184-.326-.268-.808-.401-1.445-.401-.663 0-1.147.121-1.45.364-.303.244-.455.537-.455.88 0 .297.108.542.322.735.212.191.762.389 1.653.59.891.203 1.502.378 1.834.528.48.222.837.502 1.067.843.229.339.343.731.343 1.175 0 .442-.126.854-.378 1.244-.253.39-.613.692-1.086.908a3.791 3.791 0 0 1-1.595.324c-.749 0-1.375-.11-1.881-.328a2.615 2.615 0 0 1-1.19-.986 2.775 2.775 0 0 1-.455-1.486zm10.184 2.661v-7.313h-2.731v-.972h6.561v.972h-2.731v7.313zm7.946 0v-8.285h1.643l1.96 5.865c.181.546.312.954.395 1.226.095-.3.243-.744.444-1.329l1.994-5.762H71.3v8.285h-1.053V63.16l-2.419 6.931h-.987l-2.392-7.059v7.059zm9.327-4.032c0-1.374.37-2.45 1.109-3.227.739-.777 1.691-1.165 2.86-1.165.766 0 1.454.183 2.07.547a3.579 3.579 0 0 1 1.404 1.528c.322.652.484 1.393.484 2.22 0 .839-.17 1.591-.509 2.253a3.471 3.471 0 0 1-1.441 1.504 4.116 4.116 0 0 1-2.014.511c-.781 0-1.477-.189-2.092-.565a3.64 3.64 0 0 1-1.397-1.541 4.662 4.662 0 0 1-.474-2.065zm1.134.019c0 .997.268 1.782.804 2.355.536.572 1.21.86 2.019.86.826 0 1.503-.289 2.037-.868.533-.579.799-1.4.799-2.465 0-.673-.114-1.261-.342-1.763a2.614 2.614 0 0 0-.999-1.166 2.717 2.717 0 0 0-1.477-.415 2.8 2.8 0 0 0-2.002.799c-.559.531-.839 1.418-.839 2.663zm8.191 4.013v-8.285h1.126l4.348 6.503v-6.503h1.053v8.285h-1.127l-4.347-6.503v6.503zm8.392 0v-8.285h5.983v.972h-4.884v2.546h4.571v.972h-4.571v2.824h5.08v.971zm10.031 0v-3.51l-3.194-4.775h1.32l1.637 2.507c.305.465.588.93.847 1.394.252-.434.559-.919.916-1.459l1.604-2.442h1.279l-3.31 4.775v3.51zm7.858-2.488v-1.018h3.147v1.018zm9.029 2.488l-2.181-8.285h1.138l1.242 5.433c.135.569.255 1.134.357 1.693.218-.883.345-1.392.382-1.527l1.566-5.599h1.321L122.371 66c.291 1.042.507 2.02.646 2.932.11-.522.251-1.122.423-1.799l1.294-5.327h1.101l-2.268 8.285h-1.066l-1.738-6.312c-.147-.529-.236-.853-.268-.972-.095.378-.18.702-.253.97l-1.738 6.314zm9.679 0v-8.285h1.099v8.285zm3.018 0v-8.285h1.126l4.348 6.503v-6.503h1.053v8.285h-1.127l-4.347-6.503v6.503zm8.357 0v-8.285h1.126l4.348 6.503v-6.503h1.053v8.285h-1.126l-4.348-6.503v6.503zm8.554 0v-8.285h1.099v8.285zm3.018 0v-8.285h1.127l4.347 6.503v-6.503h1.053v8.285h-1.126l-4.347-6.503v6.503zm12.246-3.252v-.971h3.506v3.07a6.208 6.208 0 0 1-1.666.968 4.965 4.965 0 0 1-1.763.324c-.814 0-1.553-.173-2.218-.523a3.44 3.44 0 0 1-1.504-1.51c-.34-.659-.51-1.396-.51-2.208 0-.806.168-1.558.505-2.259.338-.698.822-1.216 1.455-1.554.632-.34 1.362-.509 2.187-.509.598 0 1.14.096 1.624.291.484.195.864.465 1.138.81.276.347.484.8.627 1.358l-.99.27c-.125-.42-.279-.752-.463-.995-.185-.241-.447-.434-.79-.579a2.893 2.893 0 0 0-1.14-.218c-.5 0-.932.077-1.298.23a2.422 2.422 0 0 0-.884.603 2.874 2.874 0 0 0-.52.82 4.38 4.38 0 0 0-.317 1.67c0 .741.128 1.36.38 1.86.255.497.625.867 1.109 1.108a3.423 3.423 0 0 0 1.547.363c.475 0 .938-.093 1.389-.276.451-.185.792-.379 1.026-.59v-1.553zm7.98.591l1.03-.093c.048.417.163.758.342 1.026.179.266.457.483.833.648.376.164.8.247 1.271.247.419 0 .787-.062 1.107-.187.32-.125.558-.297.714-.515.156-.218.235-.455.235-.71 0-.258-.075-.484-.226-.679-.15-.192-.399-.355-.746-.487-.222-.085-.714-.221-1.476-.404-.761-.183-1.294-.355-1.598-.517-.396-.208-.689-.466-.882-.773a1.882 1.882 0 0 1-.291-1.031c0-.421.119-.813.357-1.175.237-.365.582-.641 1.039-.83a3.95 3.95 0 0 1 1.52-.283c.613 0 1.155.098 1.624.297.469.197.829.488 1.082.873.253.384.388.82.407 1.306l-1.053.081c-.056-.522-.247-.918-.573-1.184-.326-.268-.808-.401-1.445-.401-.663 0-1.147.121-1.45.364-.303.244-.455.537-.455.88 0 .297.108.542.322.735.212.191.762.389 1.653.59.891.203 1.503.378 1.834.528.48.222.837.502 1.067.843.229.339.343.731.343 1.175 0 .442-.125.854-.378 1.244s-.613.692-1.086.908a3.789 3.789 0 0 1-1.595.324c-.748 0-1.375-.11-1.88-.328a2.61 2.61 0 0 1-1.19-.986 2.776 2.776 0 0 1-.456-1.486zm8.263 2.661v-8.285h1.099v8.285zm5.136 0v-7.313h-2.731v-.972h6.561v.972h-2.73v7.313zm4.986 0v-8.285h5.983v.972h-4.884v2.546h4.571v.972h-4.571v2.824h5.08v.971z"/></g></g></g></svg>