<svg xmlns="http://www.w3.org/2000/svg" width="134" height="34" viewBox="0 0 134 34"><g><g><path fill="#fff" d="M1.263 33.437V10.622H4.52v22.815zm1.625-25.53c-1.446 0-2.173-.726-2.173-2.174 0-1.453.727-2.172 2.173-2.172 1.454 0 2.173.72 2.173 2.172 0 1.448-.719 2.174-2.173 2.174zm8.152 17.928c0 2.893 1.446 4.34 4.346 4.34h7.603c2.9 0 4.346-1.447 4.346-4.34V13.878H15.386c-2.9 0-4.346 1.454-4.346 4.347zm4.346 7.602c-5.073 0-7.602-2.536-7.602-7.602v-7.61c0-5.067 2.529-7.603 7.602-7.603h11.95V.84h3.263v24.996c0 5.066-2.536 7.602-7.61 7.602zm25.538-19.559c-2.9 0-4.346 1.454-4.346 4.347v4.673l15.405-3.539c.594-.208.89-.586.89-1.134 0-2.893-1.446-4.347-4.346-4.347zm7.603 16.296c2.9 0 4.347-1.446 4.347-4.339h3.256c0 5.066-2.53 7.602-7.603 7.602h-7.603c-5.073 0-7.61-2.536-7.61-7.602v-7.61c0-5.067 2.537-7.603 7.61-7.603h7.603c5.073 0 7.603 2.173 7.603 6.52 0 3.153-1.098 4.97-3.3 5.43L36.6 26.264c.126 2.611 1.573 3.91 4.324 3.91zm24.989 0c2.9 0 4.347-1.446 4.347-4.339v-4.673L62.457 24.7c-.594.208-.89.579-.89 1.135 0 2.893 1.446 4.34 4.347 4.34zm-7.602-16.296c-2.9 0-4.347 1.454-4.347 4.347H58.31c0-5.067 2.53-7.603 7.603-7.603h7.602c5.074 0 7.61 2.536 7.61 7.603v7.61c0 5.066-2.536 7.602-7.61 7.602h-7.602c-5.074 0-7.603-2.172-7.603-6.519 0-3.16 1.097-4.97 3.3-5.43l16.23-3.693c-.127-2.612-1.573-3.917-4.325-3.917zm41.292 11.957c0 5.066-2.537 7.602-7.61 7.602h-7.603c-5.074 0-7.603-2.536-7.603-7.602V.839h3.256v9.783h11.95c5.073 0 7.61 2.536 7.61 7.603zm-7.61 4.34c2.9 0 4.346-1.447 4.346-4.34v-7.61c0-2.893-1.446-4.347-4.347-4.347H87.646v11.957c0 2.893 1.446 4.34 4.347 4.34zm10.873-19.553h3.256v15.213c0 2.893 1.446 4.34 4.347 4.34h7.602c2.9 0 4.347-1.447 4.347-4.34V10.622h3.264v15.213c0 5.066-2.537 7.602-7.61 7.602h-7.603c-5.074 0-7.603-2.536-7.603-7.602z"/></g></g></svg>